<mxfile host="app.diagrams.net" modified="2023-08-22T16:30:11.186Z" agent="Mozilla/5.0 (Windows NT 10.0; Win64; x64) AppleWebKit/537.36 (KHTML, like Gecko) Chrome/116.0.0.0 Safari/537.36" etag="1hb4uU3Ro_jZQWdvfmFk" version="21.6.8" type="device">
  <diagram id="C5RBs43oDa-KdzZeNtuy" name="Page-1">
    <mxGraphModel dx="1050" dy="585" grid="1" gridSize="10" guides="1" tooltips="1" connect="1" arrows="1" fold="1" page="1" pageScale="1" pageWidth="827" pageHeight="1169" math="0" shadow="0">
      <root>
        <mxCell id="WIyWlLk6GJQsqaUBKTNV-0" />
        <mxCell id="WIyWlLk6GJQsqaUBKTNV-1" parent="WIyWlLk6GJQsqaUBKTNV-0" />
        <mxCell id="zkfFHV4jXpPFQw0GAbJ--0" value="Field" style="swimlane;fontStyle=0;align=center;verticalAlign=top;childLayout=stackLayout;horizontal=1;startSize=30;horizontalStack=0;resizeParent=1;resizeLast=0;collapsible=1;marginBottom=0;rounded=0;shadow=0;strokeWidth=1;fontSize=20;" parent="WIyWlLk6GJQsqaUBKTNV-1" vertex="1">
          <mxGeometry x="330" y="200" width="180" height="80" as="geometry">
            <mxRectangle x="230" y="140" width="160" height="26" as="alternateBounds" />
          </mxGeometry>
        </mxCell>
        <mxCell id="zkfFHV4jXpPFQw0GAbJ--4" value="" style="line;html=1;strokeWidth=1;align=left;verticalAlign=middle;spacingTop=-1;spacingLeft=3;spacingRight=3;rotatable=0;labelPosition=right;points=[];portConstraint=eastwest;" parent="zkfFHV4jXpPFQw0GAbJ--0" vertex="1">
          <mxGeometry y="30" width="180" height="8" as="geometry" />
        </mxCell>
        <mxCell id="GdWMDdMxAD1pK-X6qC2C-0" value="- __getitem__" style="text;align=left;verticalAlign=top;spacingLeft=4;spacingRight=4;overflow=hidden;rotatable=1;points=[[0,0.5],[1,0.5]];portConstraint=eastwest;movable=1;resizable=1;deletable=1;editable=1;locked=0;connectable=1;fontSize=18;" parent="zkfFHV4jXpPFQw0GAbJ--0" vertex="1">
          <mxGeometry y="38" width="180" height="32" as="geometry" />
        </mxCell>
        <mxCell id="f89vowj2R0EjpbG1QXsR-9" value="Name" style="swimlane;fontStyle=0;align=center;verticalAlign=top;childLayout=stackLayout;horizontal=1;startSize=26;horizontalStack=0;resizeParent=1;resizeLast=0;collapsible=1;marginBottom=0;rounded=0;shadow=0;strokeWidth=1;fontSize=18;" parent="WIyWlLk6GJQsqaUBKTNV-1" vertex="1">
          <mxGeometry x="20" y="360" width="110" height="138" as="geometry">
            <mxRectangle x="130" y="380" width="160" height="26" as="alternateBounds" />
          </mxGeometry>
        </mxCell>
        <mxCell id="f89vowj2R0EjpbG1QXsR-10" value="- __value" style="text;align=left;verticalAlign=top;spacingLeft=4;spacingRight=4;overflow=hidden;rotatable=0;points=[[0,0.5],[1,0.5]];portConstraint=eastwest;fontSize=16;" parent="f89vowj2R0EjpbG1QXsR-9" vertex="1">
          <mxGeometry y="26" width="110" height="26" as="geometry" />
        </mxCell>
        <mxCell id="f89vowj2R0EjpbG1QXsR-12" value="" style="line;html=1;strokeWidth=1;align=left;verticalAlign=middle;spacingTop=-1;spacingLeft=3;spacingRight=3;rotatable=0;labelPosition=right;points=[];portConstraint=eastwest;" parent="f89vowj2R0EjpbG1QXsR-9" vertex="1">
          <mxGeometry y="52" width="110" height="8" as="geometry" />
        </mxCell>
        <mxCell id="f89vowj2R0EjpbG1QXsR-13" value="- __getitem__" style="text;align=left;verticalAlign=top;spacingLeft=4;spacingRight=4;overflow=hidden;rotatable=0;points=[[0,0.5],[1,0.5]];portConstraint=eastwest;fontStyle=0;fontSize=16;" parent="f89vowj2R0EjpbG1QXsR-9" vertex="1">
          <mxGeometry y="60" width="110" height="60" as="geometry" />
        </mxCell>
        <mxCell id="f89vowj2R0EjpbG1QXsR-15" value="" style="endArrow=open;html=1;rounded=0;endSize=15;endFill=0;" parent="WIyWlLk6GJQsqaUBKTNV-1" edge="1">
          <mxGeometry width="50" height="50" relative="1" as="geometry">
            <mxPoint x="420" y="320" as="sourcePoint" />
            <mxPoint x="420" y="280" as="targetPoint" />
            <Array as="points">
              <mxPoint x="420" y="310" />
            </Array>
          </mxGeometry>
        </mxCell>
        <mxCell id="f89vowj2R0EjpbG1QXsR-17" value="" style="endArrow=none;html=1;rounded=0;" parent="WIyWlLk6GJQsqaUBKTNV-1" edge="1">
          <mxGeometry width="50" height="50" relative="1" as="geometry">
            <mxPoint x="73" y="320" as="sourcePoint" />
            <mxPoint x="770" y="320" as="targetPoint" />
          </mxGeometry>
        </mxCell>
        <mxCell id="f89vowj2R0EjpbG1QXsR-18" value="" style="endArrow=none;html=1;rounded=0;exitX=0.5;exitY=0;exitDx=0;exitDy=0;" parent="WIyWlLk6GJQsqaUBKTNV-1" edge="1">
          <mxGeometry width="50" height="50" relative="1" as="geometry">
            <mxPoint x="73" y="360" as="sourcePoint" />
            <mxPoint x="73" y="320" as="targetPoint" />
          </mxGeometry>
        </mxCell>
        <mxCell id="f89vowj2R0EjpbG1QXsR-19" value="" style="endArrow=none;html=1;rounded=0;exitX=0.5;exitY=0;exitDx=0;exitDy=0;" parent="WIyWlLk6GJQsqaUBKTNV-1" edge="1">
          <mxGeometry width="50" height="50" relative="1" as="geometry">
            <mxPoint x="201" y="360" as="sourcePoint" />
            <mxPoint x="201" y="320" as="targetPoint" />
            <Array as="points">
              <mxPoint x="201" y="340" />
            </Array>
          </mxGeometry>
        </mxCell>
        <mxCell id="f89vowj2R0EjpbG1QXsR-20" value="" style="endArrow=none;html=1;rounded=0;exitX=0.5;exitY=0;exitDx=0;exitDy=0;" parent="WIyWlLk6GJQsqaUBKTNV-1" edge="1">
          <mxGeometry width="50" height="50" relative="1" as="geometry">
            <mxPoint x="347" y="361" as="sourcePoint" />
            <mxPoint x="347" y="321" as="targetPoint" />
            <Array as="points">
              <mxPoint x="347" y="341" />
            </Array>
          </mxGeometry>
        </mxCell>
        <mxCell id="f89vowj2R0EjpbG1QXsR-21" value="" style="endArrow=none;html=1;rounded=0;exitX=0.5;exitY=0;exitDx=0;exitDy=0;" parent="WIyWlLk6GJQsqaUBKTNV-1" edge="1">
          <mxGeometry width="50" height="50" relative="1" as="geometry">
            <mxPoint x="767" y="360" as="sourcePoint" />
            <mxPoint x="767" y="320" as="targetPoint" />
            <Array as="points">
              <mxPoint x="767" y="340" />
            </Array>
          </mxGeometry>
        </mxCell>
        <mxCell id="f89vowj2R0EjpbG1QXsR-38" value="Record" style="swimlane;fontStyle=0;align=center;verticalAlign=top;childLayout=stackLayout;horizontal=1;startSize=30;horizontalStack=0;resizeParent=1;resizeLast=0;collapsible=1;marginBottom=0;rounded=0;shadow=0;strokeWidth=1;" parent="WIyWlLk6GJQsqaUBKTNV-1" vertex="1">
          <mxGeometry x="334" y="585" width="160" height="205" as="geometry">
            <mxRectangle x="230" y="140" width="160" height="26" as="alternateBounds" />
          </mxGeometry>
        </mxCell>
        <mxCell id="f89vowj2R0EjpbG1QXsR-39" value="+ name: Name&#xa;+ phones: list(Phone)&#xa;+ birthday: Birthday&#xa;+ email: Email&#xa;+ status: Status&#xa;+ note: Note" style="text;align=left;verticalAlign=top;spacingLeft=4;spacingRight=4;overflow=hidden;rotatable=0;points=[[0,0.5],[1,0.5]];portConstraint=eastwest;" parent="f89vowj2R0EjpbG1QXsR-38" vertex="1">
          <mxGeometry y="30" width="160" height="110" as="geometry" />
        </mxCell>
        <mxCell id="f89vowj2R0EjpbG1QXsR-40" value="" style="line;html=1;strokeWidth=1;align=left;verticalAlign=middle;spacingTop=-1;spacingLeft=3;spacingRight=3;rotatable=0;labelPosition=right;points=[];portConstraint=eastwest;" parent="f89vowj2R0EjpbG1QXsR-38" vertex="1">
          <mxGeometry y="140" width="160" height="8" as="geometry" />
        </mxCell>
        <mxCell id="f89vowj2R0EjpbG1QXsR-42" value="-Â  __init__&#xa;+ days_to_birthday&#xa;" style="text;align=left;verticalAlign=top;spacingLeft=4;spacingRight=4;overflow=hidden;rotatable=0;points=[[0,0.5],[1,0.5]];portConstraint=eastwest;fontStyle=0" parent="f89vowj2R0EjpbG1QXsR-38" vertex="1">
          <mxGeometry y="148" width="160" height="42" as="geometry" />
        </mxCell>
        <mxCell id="f89vowj2R0EjpbG1QXsR-44" value="" style="endArrow=open;html=1;rounded=0;endFill=0;startArrow=diamondThin;startFill=0;endSize=15;startSize=15;exitX=0.545;exitY=0.003;exitDx=0;exitDy=0;exitPerimeter=0;" parent="WIyWlLk6GJQsqaUBKTNV-1" source="f89vowj2R0EjpbG1QXsR-38" edge="1">
          <mxGeometry width="50" height="50" relative="1" as="geometry">
            <mxPoint x="420" y="580" as="sourcePoint" />
            <mxPoint x="420" y="540" as="targetPoint" />
          </mxGeometry>
        </mxCell>
        <mxCell id="f89vowj2R0EjpbG1QXsR-45" value="" style="endArrow=none;html=1;rounded=0;" parent="WIyWlLk6GJQsqaUBKTNV-1" edge="1">
          <mxGeometry width="50" height="50" relative="1" as="geometry">
            <mxPoint x="75" y="540" as="sourcePoint" />
            <mxPoint x="770" y="540" as="targetPoint" />
          </mxGeometry>
        </mxCell>
        <mxCell id="f89vowj2R0EjpbG1QXsR-47" value="" style="endArrow=open;html=1;rounded=0;endFill=0;endSize=15;entryX=0.5;entryY=1;entryDx=0;entryDy=0;" parent="WIyWlLk6GJQsqaUBKTNV-1" target="f89vowj2R0EjpbG1QXsR-9" edge="1">
          <mxGeometry width="50" height="50" relative="1" as="geometry">
            <mxPoint x="75" y="540" as="sourcePoint" />
            <mxPoint x="110" y="640" as="targetPoint" />
          </mxGeometry>
        </mxCell>
        <mxCell id="f89vowj2R0EjpbG1QXsR-48" value="" style="endArrow=open;html=1;rounded=0;endFill=0;endSize=15;" parent="WIyWlLk6GJQsqaUBKTNV-1" edge="1">
          <mxGeometry width="50" height="50" relative="1" as="geometry">
            <mxPoint x="632" y="540" as="sourcePoint" />
            <mxPoint x="632" y="500" as="targetPoint" />
          </mxGeometry>
        </mxCell>
        <mxCell id="f89vowj2R0EjpbG1QXsR-49" value="" style="endArrow=open;html=1;rounded=0;endFill=0;endSize=15;" parent="WIyWlLk6GJQsqaUBKTNV-1" edge="1">
          <mxGeometry width="50" height="50" relative="1" as="geometry">
            <mxPoint x="201" y="539" as="sourcePoint" />
            <mxPoint x="201" y="499" as="targetPoint" />
          </mxGeometry>
        </mxCell>
        <mxCell id="f89vowj2R0EjpbG1QXsR-50" value="" style="endArrow=open;html=1;rounded=0;endFill=0;endSize=15;" parent="WIyWlLk6GJQsqaUBKTNV-1" edge="1">
          <mxGeometry width="50" height="50" relative="1" as="geometry">
            <mxPoint x="770" y="539" as="sourcePoint" />
            <mxPoint x="770" y="499" as="targetPoint" />
          </mxGeometry>
        </mxCell>
        <mxCell id="f89vowj2R0EjpbG1QXsR-51" value="AddressBook" style="swimlane;fontStyle=0;align=center;verticalAlign=top;childLayout=stackLayout;horizontal=1;startSize=35;horizontalStack=0;resizeParent=1;resizeLast=0;collapsible=1;marginBottom=0;rounded=0;shadow=0;strokeWidth=1;" parent="WIyWlLk6GJQsqaUBKTNV-1" vertex="1">
          <mxGeometry x="80" y="585" width="160" height="295" as="geometry">
            <mxRectangle x="130" y="380" width="160" height="26" as="alternateBounds" />
          </mxGeometry>
        </mxCell>
        <mxCell id="f89vowj2R0EjpbG1QXsR-52" value="- data&#xa;- counter" style="text;align=left;verticalAlign=top;spacingLeft=4;spacingRight=4;overflow=hidden;rotatable=0;points=[[0,0.5],[1,0.5]];portConstraint=eastwest;" parent="f89vowj2R0EjpbG1QXsR-51" vertex="1">
          <mxGeometry y="35" width="160" height="34" as="geometry" />
        </mxCell>
        <mxCell id="f89vowj2R0EjpbG1QXsR-53" value="" style="line;html=1;strokeWidth=1;align=left;verticalAlign=middle;spacingTop=-1;spacingLeft=3;spacingRight=3;rotatable=0;labelPosition=right;points=[];portConstraint=eastwest;" parent="f89vowj2R0EjpbG1QXsR-51" vertex="1">
          <mxGeometry y="69" width="160" height="8" as="geometry" />
        </mxCell>
        <mxCell id="f89vowj2R0EjpbG1QXsR-54" value="- __str__&#xa;- __ next__&#xa;- __iter__&#xa;- __setitem__&#xa;- __getitem__&#xa;+ log&#xa;+ add&#xa;+ save&#xa;+ load&#xa;+ search&#xa;+ edit&#xa;+ remove&#xa;+ __get_current_week&#xa;+Â congratulate&#xa;" style="text;align=left;verticalAlign=top;spacingLeft=4;spacingRight=4;overflow=hidden;rotatable=0;points=[[0,0.5],[1,0.5]];portConstraint=eastwest;fontStyle=0" parent="f89vowj2R0EjpbG1QXsR-51" vertex="1">
          <mxGeometry y="77" width="160" height="213" as="geometry" />
        </mxCell>
        <mxCell id="f89vowj2R0EjpbG1QXsR-55" value="" style="endArrow=open;html=1;rounded=0;endFill=0;startArrow=diamondThin;startFill=0;endSize=15;startSize=15;entryX=0.001;entryY=0.084;entryDx=0;entryDy=0;entryPerimeter=0;exitX=1.004;exitY=0.064;exitDx=0;exitDy=0;exitPerimeter=0;" parent="WIyWlLk6GJQsqaUBKTNV-1" source="f89vowj2R0EjpbG1QXsR-51" target="f89vowj2R0EjpbG1QXsR-38" edge="1">
          <mxGeometry width="50" height="50" relative="1" as="geometry">
            <mxPoint x="240" y="600" as="sourcePoint" />
            <mxPoint x="330" y="600" as="targetPoint" />
          </mxGeometry>
        </mxCell>
        <mxCell id="DfpqDmvV-3iWDSNKvdnb-0" value="Phone" style="swimlane;fontStyle=0;align=center;verticalAlign=top;childLayout=stackLayout;horizontal=1;startSize=26;horizontalStack=0;resizeParent=1;resizeLast=0;collapsible=1;marginBottom=0;rounded=0;shadow=0;strokeWidth=1;fontSize=18;" parent="WIyWlLk6GJQsqaUBKTNV-1" vertex="1">
          <mxGeometry x="150" y="360" width="110" height="138" as="geometry">
            <mxRectangle x="130" y="380" width="160" height="26" as="alternateBounds" />
          </mxGeometry>
        </mxCell>
        <mxCell id="DfpqDmvV-3iWDSNKvdnb-1" value="- __value" style="text;align=left;verticalAlign=top;spacingLeft=4;spacingRight=4;overflow=hidden;rotatable=0;points=[[0,0.5],[1,0.5]];portConstraint=eastwest;fontSize=16;" parent="DfpqDmvV-3iWDSNKvdnb-0" vertex="1">
          <mxGeometry y="26" width="110" height="26" as="geometry" />
        </mxCell>
        <mxCell id="DfpqDmvV-3iWDSNKvdnb-2" value="" style="line;html=1;strokeWidth=1;align=left;verticalAlign=middle;spacingTop=-1;spacingLeft=3;spacingRight=3;rotatable=0;labelPosition=right;points=[];portConstraint=eastwest;" parent="DfpqDmvV-3iWDSNKvdnb-0" vertex="1">
          <mxGeometry y="52" width="110" height="8" as="geometry" />
        </mxCell>
        <mxCell id="DfpqDmvV-3iWDSNKvdnb-3" value="- __getitem__" style="text;align=left;verticalAlign=top;spacingLeft=4;spacingRight=4;overflow=hidden;rotatable=0;points=[[0,0.5],[1,0.5]];portConstraint=eastwest;fontStyle=0;fontSize=16;" parent="DfpqDmvV-3iWDSNKvdnb-0" vertex="1">
          <mxGeometry y="60" width="110" height="60" as="geometry" />
        </mxCell>
        <mxCell id="DfpqDmvV-3iWDSNKvdnb-4" value="Birthday" style="swimlane;fontStyle=0;align=center;verticalAlign=top;childLayout=stackLayout;horizontal=1;startSize=26;horizontalStack=0;resizeParent=1;resizeLast=0;collapsible=1;marginBottom=0;rounded=0;shadow=0;strokeWidth=1;fontSize=18;" parent="WIyWlLk6GJQsqaUBKTNV-1" vertex="1">
          <mxGeometry x="290" y="360" width="110" height="138" as="geometry">
            <mxRectangle x="130" y="380" width="160" height="26" as="alternateBounds" />
          </mxGeometry>
        </mxCell>
        <mxCell id="DfpqDmvV-3iWDSNKvdnb-5" value="- __value" style="text;align=left;verticalAlign=top;spacingLeft=4;spacingRight=4;overflow=hidden;rotatable=0;points=[[0,0.5],[1,0.5]];portConstraint=eastwest;fontSize=16;" parent="DfpqDmvV-3iWDSNKvdnb-4" vertex="1">
          <mxGeometry y="26" width="110" height="26" as="geometry" />
        </mxCell>
        <mxCell id="DfpqDmvV-3iWDSNKvdnb-6" value="" style="line;html=1;strokeWidth=1;align=left;verticalAlign=middle;spacingTop=-1;spacingLeft=3;spacingRight=3;rotatable=0;labelPosition=right;points=[];portConstraint=eastwest;" parent="DfpqDmvV-3iWDSNKvdnb-4" vertex="1">
          <mxGeometry y="52" width="110" height="8" as="geometry" />
        </mxCell>
        <mxCell id="DfpqDmvV-3iWDSNKvdnb-7" value="- __getitem__" style="text;align=left;verticalAlign=top;spacingLeft=4;spacingRight=4;overflow=hidden;rotatable=0;points=[[0,0.5],[1,0.5]];portConstraint=eastwest;fontStyle=0;fontSize=16;" parent="DfpqDmvV-3iWDSNKvdnb-4" vertex="1">
          <mxGeometry y="60" width="110" height="60" as="geometry" />
        </mxCell>
        <mxCell id="DfpqDmvV-3iWDSNKvdnb-8" value="Email" style="swimlane;fontStyle=0;align=center;verticalAlign=top;childLayout=stackLayout;horizontal=1;startSize=26;horizontalStack=0;resizeParent=1;resizeLast=0;collapsible=1;marginBottom=0;rounded=0;shadow=0;strokeWidth=1;fontSize=18;" parent="WIyWlLk6GJQsqaUBKTNV-1" vertex="1">
          <mxGeometry x="440" y="360" width="110" height="138" as="geometry">
            <mxRectangle x="130" y="380" width="160" height="26" as="alternateBounds" />
          </mxGeometry>
        </mxCell>
        <mxCell id="DfpqDmvV-3iWDSNKvdnb-9" value="- __value" style="text;align=left;verticalAlign=top;spacingLeft=4;spacingRight=4;overflow=hidden;rotatable=0;points=[[0,0.5],[1,0.5]];portConstraint=eastwest;fontSize=16;" parent="DfpqDmvV-3iWDSNKvdnb-8" vertex="1">
          <mxGeometry y="26" width="110" height="26" as="geometry" />
        </mxCell>
        <mxCell id="DfpqDmvV-3iWDSNKvdnb-10" value="" style="line;html=1;strokeWidth=1;align=left;verticalAlign=middle;spacingTop=-1;spacingLeft=3;spacingRight=3;rotatable=0;labelPosition=right;points=[];portConstraint=eastwest;" parent="DfpqDmvV-3iWDSNKvdnb-8" vertex="1">
          <mxGeometry y="52" width="110" height="8" as="geometry" />
        </mxCell>
        <mxCell id="DfpqDmvV-3iWDSNKvdnb-11" value="- __getitem__" style="text;align=left;verticalAlign=top;spacingLeft=4;spacingRight=4;overflow=hidden;rotatable=0;points=[[0,0.5],[1,0.5]];portConstraint=eastwest;fontStyle=0;fontSize=16;" parent="DfpqDmvV-3iWDSNKvdnb-8" vertex="1">
          <mxGeometry y="60" width="110" height="60" as="geometry" />
        </mxCell>
        <mxCell id="DfpqDmvV-3iWDSNKvdnb-12" value="Note" style="swimlane;fontStyle=0;align=center;verticalAlign=top;childLayout=stackLayout;horizontal=1;startSize=26;horizontalStack=0;resizeParent=1;resizeLast=0;collapsible=1;marginBottom=0;rounded=0;shadow=0;strokeWidth=1;fontSize=18;" parent="WIyWlLk6GJQsqaUBKTNV-1" vertex="1">
          <mxGeometry x="710" y="360" width="110" height="138" as="geometry">
            <mxRectangle x="130" y="380" width="160" height="26" as="alternateBounds" />
          </mxGeometry>
        </mxCell>
        <mxCell id="DfpqDmvV-3iWDSNKvdnb-13" value="- __value" style="text;align=left;verticalAlign=top;spacingLeft=4;spacingRight=4;overflow=hidden;rotatable=0;points=[[0,0.5],[1,0.5]];portConstraint=eastwest;fontSize=16;" parent="DfpqDmvV-3iWDSNKvdnb-12" vertex="1">
          <mxGeometry y="26" width="110" height="26" as="geometry" />
        </mxCell>
        <mxCell id="DfpqDmvV-3iWDSNKvdnb-14" value="" style="line;html=1;strokeWidth=1;align=left;verticalAlign=middle;spacingTop=-1;spacingLeft=3;spacingRight=3;rotatable=0;labelPosition=right;points=[];portConstraint=eastwest;" parent="DfpqDmvV-3iWDSNKvdnb-12" vertex="1">
          <mxGeometry y="52" width="110" height="8" as="geometry" />
        </mxCell>
        <mxCell id="DfpqDmvV-3iWDSNKvdnb-15" value="- __getitem__" style="text;align=left;verticalAlign=top;spacingLeft=4;spacingRight=4;overflow=hidden;rotatable=0;points=[[0,0.5],[1,0.5]];portConstraint=eastwest;fontStyle=0;fontSize=16;" parent="DfpqDmvV-3iWDSNKvdnb-12" vertex="1">
          <mxGeometry y="60" width="110" height="60" as="geometry" />
        </mxCell>
        <mxCell id="DfpqDmvV-3iWDSNKvdnb-16" value="Status" style="swimlane;fontStyle=0;align=center;verticalAlign=top;childLayout=stackLayout;horizontal=1;startSize=26;horizontalStack=0;resizeParent=1;resizeLast=0;collapsible=1;marginBottom=0;rounded=0;shadow=0;strokeWidth=1;fontSize=18;" parent="WIyWlLk6GJQsqaUBKTNV-1" vertex="1">
          <mxGeometry x="580" y="360" width="110" height="138" as="geometry">
            <mxRectangle x="130" y="380" width="160" height="26" as="alternateBounds" />
          </mxGeometry>
        </mxCell>
        <mxCell id="DfpqDmvV-3iWDSNKvdnb-17" value="- __value" style="text;align=left;verticalAlign=top;spacingLeft=4;spacingRight=4;overflow=hidden;rotatable=0;points=[[0,0.5],[1,0.5]];portConstraint=eastwest;fontSize=16;" parent="DfpqDmvV-3iWDSNKvdnb-16" vertex="1">
          <mxGeometry y="26" width="110" height="26" as="geometry" />
        </mxCell>
        <mxCell id="DfpqDmvV-3iWDSNKvdnb-18" value="" style="line;html=1;strokeWidth=1;align=left;verticalAlign=middle;spacingTop=-1;spacingLeft=3;spacingRight=3;rotatable=0;labelPosition=right;points=[];portConstraint=eastwest;" parent="DfpqDmvV-3iWDSNKvdnb-16" vertex="1">
          <mxGeometry y="52" width="110" height="8" as="geometry" />
        </mxCell>
        <mxCell id="DfpqDmvV-3iWDSNKvdnb-19" value="- __getitem__" style="text;align=left;verticalAlign=top;spacingLeft=4;spacingRight=4;overflow=hidden;rotatable=0;points=[[0,0.5],[1,0.5]];portConstraint=eastwest;fontStyle=0;fontSize=16;" parent="DfpqDmvV-3iWDSNKvdnb-16" vertex="1">
          <mxGeometry y="60" width="110" height="60" as="geometry" />
        </mxCell>
        <mxCell id="DfpqDmvV-3iWDSNKvdnb-20" value="" style="endArrow=none;html=1;rounded=0;exitX=0.5;exitY=0;exitDx=0;exitDy=0;" parent="WIyWlLk6GJQsqaUBKTNV-1" edge="1">
          <mxGeometry width="50" height="50" relative="1" as="geometry">
            <mxPoint x="492" y="362" as="sourcePoint" />
            <mxPoint x="492" y="322" as="targetPoint" />
            <Array as="points">
              <mxPoint x="492" y="342" />
            </Array>
          </mxGeometry>
        </mxCell>
        <mxCell id="DfpqDmvV-3iWDSNKvdnb-21" value="" style="endArrow=none;html=1;rounded=0;exitX=0.5;exitY=0;exitDx=0;exitDy=0;" parent="WIyWlLk6GJQsqaUBKTNV-1" edge="1">
          <mxGeometry width="50" height="50" relative="1" as="geometry">
            <mxPoint x="632" y="360" as="sourcePoint" />
            <mxPoint x="632" y="320" as="targetPoint" />
            <Array as="points">
              <mxPoint x="632" y="340" />
            </Array>
          </mxGeometry>
        </mxCell>
        <mxCell id="DfpqDmvV-3iWDSNKvdnb-22" value="" style="endArrow=open;html=1;rounded=0;endFill=0;endSize=15;" parent="WIyWlLk6GJQsqaUBKTNV-1" edge="1">
          <mxGeometry width="50" height="50" relative="1" as="geometry">
            <mxPoint x="494" y="539" as="sourcePoint" />
            <mxPoint x="494" y="499" as="targetPoint" />
          </mxGeometry>
        </mxCell>
        <mxCell id="DfpqDmvV-3iWDSNKvdnb-23" value="" style="endArrow=open;html=1;rounded=0;endFill=0;endSize=15;" parent="WIyWlLk6GJQsqaUBKTNV-1" edge="1">
          <mxGeometry width="50" height="50" relative="1" as="geometry">
            <mxPoint x="350" y="540" as="sourcePoint" />
            <mxPoint x="350" y="500" as="targetPoint" />
          </mxGeometry>
        </mxCell>
        <mxCell id="hHElb3EQ1m33AWE8UM63-0" value="Bot" style="swimlane;fontStyle=0;align=center;verticalAlign=top;childLayout=stackLayout;horizontal=1;startSize=26;horizontalStack=0;resizeParent=1;resizeLast=0;collapsible=1;marginBottom=0;rounded=0;shadow=0;strokeWidth=1;fontSize=18;" vertex="1" parent="WIyWlLk6GJQsqaUBKTNV-1">
          <mxGeometry x="80" y="980" width="160" height="138" as="geometry">
            <mxRectangle x="130" y="380" width="160" height="26" as="alternateBounds" />
          </mxGeometry>
        </mxCell>
        <mxCell id="hHElb3EQ1m33AWE8UM63-1" value="-Â " style="text;align=left;verticalAlign=top;spacingLeft=4;spacingRight=4;overflow=hidden;rotatable=0;points=[[0,0.5],[1,0.5]];portConstraint=eastwest;fontSize=16;" vertex="1" parent="hHElb3EQ1m33AWE8UM63-0">
          <mxGeometry y="26" width="160" height="26" as="geometry" />
        </mxCell>
        <mxCell id="hHElb3EQ1m33AWE8UM63-2" value="" style="line;html=1;strokeWidth=1;align=left;verticalAlign=middle;spacingTop=-1;spacingLeft=3;spacingRight=3;rotatable=0;labelPosition=right;points=[];portConstraint=eastwest;" vertex="1" parent="hHElb3EQ1m33AWE8UM63-0">
          <mxGeometry y="52" width="160" height="8" as="geometry" />
        </mxCell>
        <mxCell id="hHElb3EQ1m33AWE8UM63-3" value="- __init__&#xa;+ handle" style="text;align=left;verticalAlign=top;spacingLeft=4;spacingRight=4;overflow=hidden;rotatable=0;points=[[0,0.5],[1,0.5]];portConstraint=eastwest;fontStyle=0;fontSize=16;" vertex="1" parent="hHElb3EQ1m33AWE8UM63-0">
          <mxGeometry y="60" width="160" height="60" as="geometry" />
        </mxCell>
        <mxCell id="hHElb3EQ1m33AWE8UM63-4" value="" style="endArrow=none;html=1;rounded=0;endFill=0;" edge="1" parent="WIyWlLk6GJQsqaUBKTNV-1">
          <mxGeometry width="50" height="50" relative="1" as="geometry">
            <mxPoint x="40" y="990" as="sourcePoint" />
            <mxPoint x="40" y="600" as="targetPoint" />
          </mxGeometry>
        </mxCell>
        <mxCell id="hHElb3EQ1m33AWE8UM63-5" value="" style="endArrow=open;html=1;rounded=0;entryX=-0.012;entryY=0.047;entryDx=0;entryDy=0;entryPerimeter=0;endFill=0;strokeWidth=1;endSize=15;" edge="1" parent="WIyWlLk6GJQsqaUBKTNV-1" target="f89vowj2R0EjpbG1QXsR-51">
          <mxGeometry width="50" height="50" relative="1" as="geometry">
            <mxPoint x="40" y="600" as="sourcePoint" />
            <mxPoint x="90" y="550" as="targetPoint" />
          </mxGeometry>
        </mxCell>
        <mxCell id="hHElb3EQ1m33AWE8UM63-6" value="" style="endArrow=diamondThin;html=1;rounded=0;endFill=0;endSize=15;" edge="1" parent="WIyWlLk6GJQsqaUBKTNV-1">
          <mxGeometry width="50" height="50" relative="1" as="geometry">
            <mxPoint x="41" y="988" as="sourcePoint" />
            <mxPoint x="80" y="988" as="targetPoint" />
          </mxGeometry>
        </mxCell>
      </root>
    </mxGraphModel>
  </diagram>
</mxfile>
